<svg width="368" height="298" viewBox="0 0 368 298" fill="none" xmlns="http://www.w3.org/2000/svg">
<path d="M2.366 27C2.19267 27 2.04533 26.9393 1.924 26.818C1.80267 26.6967 1.742 26.5493 1.742 26.376V9.164C1.742 8.99067 1.80267 8.84333 1.924 8.722C2.04533 8.60067 2.19267 8.54 2.366 8.54H4.472C4.66267 8.54 4.81 8.60067 4.914 8.722C5.03533 8.84333 5.096 8.99067 5.096 9.164V18.056L9.464 13.922C9.63733 13.7833 9.776 13.6793 9.88 13.61C10.0013 13.5233 10.1833 13.48 10.426 13.48H12.844C13.0173 13.48 13.156 13.532 13.26 13.636C13.364 13.74 13.416 13.8787 13.416 14.052C13.416 14.1213 13.3987 14.1993 13.364 14.286C13.3293 14.3727 13.26 14.4507 13.156 14.52L7.8 19.538L13.806 25.986C13.9793 26.1593 14.066 26.3067 14.066 26.428C14.066 26.6013 14.0053 26.74 13.884 26.844C13.78 26.948 13.65 27 13.494 27H11.024C10.764 27 10.5733 26.9653 10.452 26.896C10.348 26.8093 10.218 26.6967 10.062 26.558L5.096 21.332V26.376C5.096 26.5493 5.03533 26.6967 4.914 26.818C4.81 26.9393 4.66267 27 4.472 27H2.366ZM21.7002 27.26C19.7762 27.26 18.2508 26.7053 17.1242 25.596C15.9975 24.4867 15.3908 22.9093 15.3042 20.864C15.2868 20.6907 15.2782 20.474 15.2782 20.214C15.2782 19.9367 15.2868 19.72 15.3042 19.564C15.3735 18.2467 15.6682 17.12 16.1882 16.184C16.7255 15.2307 17.4622 14.5027 18.3982 14C19.3342 13.48 20.4348 13.22 21.7002 13.22C23.1042 13.22 24.2828 13.5147 25.2362 14.104C26.1895 14.676 26.9088 15.482 27.3942 16.522C27.8795 17.5447 28.1222 18.732 28.1222 20.084V20.63C28.1222 20.8033 28.0615 20.9507 27.9402 21.072C27.8188 21.1933 27.6628 21.254 27.4722 21.254H18.8402C18.8402 21.254 18.8402 21.28 18.8402 21.332C18.8402 21.384 18.8402 21.4273 18.8402 21.462C18.8575 22.0687 18.9702 22.632 19.1782 23.152C19.4035 23.6547 19.7242 24.062 20.1402 24.374C20.5735 24.686 21.0848 24.842 21.6742 24.842C22.1595 24.842 22.5668 24.7727 22.8962 24.634C23.2255 24.478 23.4942 24.3047 23.7022 24.114C23.9102 23.9233 24.0575 23.7673 24.1442 23.646C24.3002 23.438 24.4215 23.3167 24.5082 23.282C24.6122 23.23 24.7595 23.204 24.9502 23.204H27.1862C27.3595 23.204 27.4982 23.256 27.6022 23.36C27.7235 23.464 27.7755 23.594 27.7582 23.75C27.7408 24.0273 27.5935 24.3653 27.3162 24.764C27.0562 25.1627 26.6748 25.5527 26.1722 25.934C25.6695 26.3153 25.0368 26.636 24.2742 26.896C23.5288 27.1387 22.6708 27.26 21.7002 27.26ZM18.8402 19.07H24.5862V18.992C24.5862 18.316 24.4735 17.7267 24.2482 17.224C24.0228 16.704 23.6935 16.3053 23.2602 16.028C22.8268 15.7333 22.3068 15.586 21.7002 15.586C21.0935 15.586 20.5735 15.7333 20.1402 16.028C19.7068 16.3053 19.3775 16.704 19.1522 17.224C18.9442 17.7267 18.8402 18.316 18.8402 18.992V19.07ZM33.2674 31.94C33.1288 31.94 33.0074 31.888 32.9034 31.784C32.7994 31.68 32.7474 31.5587 32.7474 31.42C32.7474 31.3507 32.7474 31.2813 32.7474 31.212C32.7648 31.16 32.7994 31.0907 32.8514 31.004L34.8794 26.194L29.8874 14.416C29.8181 14.2427 29.7834 14.1213 29.7834 14.052C29.8008 13.896 29.8614 13.766 29.9654 13.662C30.0694 13.5407 30.1994 13.48 30.3554 13.48H32.4614C32.6694 13.48 32.8254 13.532 32.9294 13.636C33.0334 13.74 33.1114 13.8527 33.1634 13.974L36.6214 22.476L40.1834 13.974C40.2354 13.8353 40.3134 13.7227 40.4174 13.636C40.5214 13.532 40.6774 13.48 40.8854 13.48H42.9654C43.1041 13.48 43.2254 13.532 43.3294 13.636C43.4508 13.74 43.5114 13.8613 43.5114 14C43.5114 14.104 43.4768 14.2427 43.4074 14.416L36.0494 31.446C35.9801 31.5847 35.8934 31.6973 35.7894 31.784C35.6854 31.888 35.5294 31.94 35.3214 31.94H33.2674ZM53.7411 27.26C52.7358 27.26 51.8951 27.0867 51.2191 26.74C50.5604 26.3933 50.0144 25.9513 49.5811 25.414V26.376C49.5811 26.5493 49.5204 26.6967 49.3991 26.818C49.2951 26.9393 49.1478 27 48.9571 27H46.9031C46.7298 27 46.5824 26.9393 46.4611 26.818C46.3398 26.6967 46.2791 26.5493 46.2791 26.376V9.164C46.2791 8.99067 46.3398 8.84333 46.4611 8.722C46.5824 8.60067 46.7298 8.54 46.9031 8.54H49.1131C49.3038 8.54 49.4511 8.60067 49.5551 8.722C49.6764 8.84333 49.7371 8.99067 49.7371 9.164V14.936C50.1704 14.4333 50.7078 14.026 51.3491 13.714C52.0078 13.3847 52.8051 13.22 53.7411 13.22C54.6598 13.22 55.4571 13.376 56.1331 13.688C56.8091 14 57.3724 14.442 57.8231 15.014C58.2911 15.5687 58.6464 16.2187 58.8891 16.964C59.1318 17.7093 59.2618 18.5153 59.2791 19.382C59.2964 19.694 59.3051 19.98 59.3051 20.24C59.3051 20.4827 59.2964 20.76 59.2791 21.072C59.2444 21.9733 59.1058 22.8053 58.8631 23.568C58.6204 24.3133 58.2738 24.9633 57.8231 25.518C57.3724 26.0727 56.8091 26.506 56.1331 26.818C55.4571 27.1127 54.6598 27.26 53.7411 27.26ZM52.7791 24.478C53.5244 24.478 54.1051 24.322 54.5211 24.01C54.9371 23.6807 55.2404 23.256 55.4311 22.736C55.6218 22.216 55.7344 21.644 55.7691 21.02C55.7864 20.5 55.7864 19.98 55.7691 19.46C55.7344 18.836 55.6218 18.264 55.4311 17.744C55.2404 17.224 54.9371 16.808 54.5211 16.496C54.1051 16.1667 53.5244 16.002 52.7791 16.002C52.0858 16.002 51.5224 16.158 51.0891 16.47C50.6558 16.782 50.3264 17.1807 50.1011 17.666C49.8758 18.134 49.7544 18.628 49.7371 19.148C49.7198 19.46 49.7111 19.798 49.7111 20.162C49.7111 20.5087 49.7198 20.838 49.7371 21.15C49.7718 21.6873 49.8844 22.216 50.0751 22.736C50.2831 23.2387 50.6038 23.6547 51.0371 23.984C51.4878 24.3133 52.0684 24.478 52.7791 24.478ZM68.6784 27.26C67.2918 27.26 66.1218 27.0173 65.1684 26.532C64.2324 26.0467 63.5131 25.362 63.0104 24.478C62.5251 23.594 62.2478 22.5627 62.1784 21.384C62.1611 21.072 62.1524 20.6907 62.1524 20.24C62.1524 19.7893 62.1611 19.408 62.1784 19.096C62.2478 17.9 62.5338 16.8687 63.0364 16.002C63.5564 15.118 64.2844 14.4333 65.2204 13.948C66.1738 13.4627 67.3264 13.22 68.6784 13.22C70.0304 13.22 71.1744 13.4627 72.1104 13.948C73.0638 14.4333 73.7918 15.118 74.2944 16.002C74.8144 16.8687 75.1091 17.9 75.1784 19.096C75.1958 19.408 75.2044 19.7893 75.2044 20.24C75.2044 20.6907 75.1958 21.072 75.1784 21.384C75.1091 22.5627 74.8231 23.594 74.3204 24.478C73.8351 25.362 73.1158 26.0467 72.1624 26.532C71.2264 27.0173 70.0651 27.26 68.6784 27.26ZM68.6784 24.686C69.5971 24.686 70.3078 24.4 70.8104 23.828C71.3131 23.2387 71.5904 22.3807 71.6424 21.254C71.6598 20.994 71.6684 20.656 71.6684 20.24C71.6684 19.824 71.6598 19.486 71.6424 19.226C71.5904 18.0993 71.3131 17.25 70.8104 16.678C70.3078 16.0887 69.5971 15.794 68.6784 15.794C67.7598 15.794 67.0491 16.0887 66.5464 16.678C66.0438 17.25 65.7664 18.0993 65.7144 19.226C65.6971 19.486 65.6884 19.824 65.6884 20.24C65.6884 20.656 65.6971 20.994 65.7144 21.254C65.7664 22.3807 66.0438 23.2387 66.5464 23.828C67.0491 24.4 67.7598 24.686 68.6784 24.686ZM82.5111 27.26C81.6098 27.26 80.7951 27.0867 80.0671 26.74C79.3391 26.376 78.7585 25.8993 78.3251 25.31C77.9091 24.7033 77.7011 24.0273 77.7011 23.282C77.7011 22.0687 78.1951 21.1067 79.1831 20.396C80.1711 19.668 81.4625 19.1827 83.0571 18.94L86.6191 18.42V17.874C86.6191 17.146 86.4371 16.5827 86.0731 16.184C85.7091 15.7853 85.0851 15.586 84.2011 15.586C83.5771 15.586 83.0658 15.716 82.6671 15.976C82.2858 16.2187 81.9998 16.548 81.8091 16.964C81.6705 17.1893 81.4711 17.302 81.2111 17.302H79.1571C78.9665 17.302 78.8191 17.25 78.7151 17.146C78.6285 17.042 78.5851 16.9033 78.5851 16.73C78.6025 16.4527 78.7151 16.1147 78.9231 15.716C79.1485 15.3173 79.4778 14.936 79.9111 14.572C80.3618 14.1907 80.9425 13.87 81.6531 13.61C82.3638 13.35 83.2218 13.22 84.2271 13.22C85.3191 13.22 86.2378 13.3587 86.9831 13.636C87.7458 13.896 88.3525 14.2513 88.8031 14.702C89.2538 15.1527 89.5831 15.6813 89.7911 16.288C89.9991 16.8947 90.1031 17.536 90.1031 18.212V26.376C90.1031 26.5493 90.0425 26.6967 89.9211 26.818C89.7998 26.9393 89.6525 27 89.4791 27H87.3731C87.1825 27 87.0265 26.9393 86.9051 26.818C86.8011 26.6967 86.7491 26.5493 86.7491 26.376V25.362C86.5238 25.674 86.2205 25.9773 85.8391 26.272C85.4578 26.5667 84.9898 26.8093 84.4351 27C83.8978 27.1733 83.2565 27.26 82.5111 27.26ZM83.3951 24.79C84.0018 24.79 84.5478 24.66 85.0331 24.4C85.5358 24.14 85.9258 23.7413 86.2031 23.204C86.4978 22.6493 86.6451 21.956 86.6451 21.124V20.578L84.0451 20.994C83.0225 21.15 82.2598 21.4013 81.7571 21.748C81.2545 22.0947 81.0031 22.5193 81.0031 23.022C81.0031 23.4033 81.1158 23.7327 81.3411 24.01C81.5838 24.27 81.8871 24.4693 82.2511 24.608C82.6151 24.7293 82.9965 24.79 83.3951 24.79ZM94.5627 27C94.3893 27 94.242 26.9393 94.1207 26.818C93.9993 26.6967 93.9387 26.5493 93.9387 26.376V14.13C93.9387 13.9393 93.9993 13.7833 94.1207 13.662C94.242 13.5407 94.3893 13.48 94.5627 13.48H96.6687C96.842 13.48 96.9893 13.5407 97.1107 13.662C97.2493 13.7833 97.3187 13.9393 97.3187 14.13V15.196C97.7173 14.6413 98.2287 14.2167 98.8527 13.922C99.494 13.6273 100.231 13.48 101.063 13.48H102.129C102.319 13.48 102.467 13.5407 102.571 13.662C102.692 13.7833 102.753 13.9307 102.753 14.104V15.976C102.753 16.1493 102.692 16.2967 102.571 16.418C102.467 16.5393 102.319 16.6 102.129 16.6H100.101C99.2687 16.6 98.6187 16.834 98.1507 17.302C97.7 17.7527 97.4747 18.394 97.4747 19.226V26.376C97.4747 26.5493 97.414 26.6967 97.2927 26.818C97.1713 26.9393 97.0153 27 96.8247 27H94.5627ZM110.095 27.26C109.194 27.26 108.397 27.1127 107.703 26.818C107.027 26.506 106.464 26.0727 106.013 25.518C105.563 24.9633 105.216 24.3133 104.973 23.568C104.731 22.8053 104.592 21.9733 104.557 21.072C104.54 20.76 104.531 20.4827 104.531 20.24C104.531 19.98 104.54 19.694 104.557 19.382C104.592 18.5153 104.722 17.7093 104.947 16.964C105.19 16.2187 105.537 15.5687 105.987 15.014C106.455 14.442 107.027 14 107.703 13.688C108.397 13.376 109.194 13.22 110.095 13.22C111.031 13.22 111.82 13.3847 112.461 13.714C113.12 14.026 113.666 14.4333 114.099 14.936V9.164C114.099 8.99067 114.151 8.84333 114.255 8.722C114.377 8.60067 114.533 8.54 114.723 8.54H116.933C117.107 8.54 117.254 8.60067 117.375 8.722C117.497 8.84333 117.557 8.99067 117.557 9.164V26.376C117.557 26.5493 117.497 26.6967 117.375 26.818C117.254 26.9393 117.107 27 116.933 27H114.879C114.689 27 114.533 26.9393 114.411 26.818C114.307 26.6967 114.255 26.5493 114.255 26.376V25.414C113.822 25.9513 113.267 26.3933 112.591 26.74C111.933 27.0867 111.101 27.26 110.095 27.26ZM111.057 24.478C111.785 24.478 112.366 24.3133 112.799 23.984C113.233 23.6547 113.553 23.2387 113.761 22.736C113.969 22.216 114.082 21.6873 114.099 21.15C114.117 20.838 114.125 20.5087 114.125 20.162C114.125 19.798 114.117 19.46 114.099 19.148C114.082 18.628 113.961 18.134 113.735 17.666C113.51 17.1807 113.181 16.782 112.747 16.47C112.314 16.158 111.751 16.002 111.057 16.002C110.329 16.002 109.749 16.1667 109.315 16.496C108.899 16.808 108.596 17.224 108.405 17.744C108.215 18.264 108.102 18.836 108.067 19.46C108.05 19.98 108.05 20.5 108.067 21.02C108.102 21.644 108.215 22.216 108.405 22.736C108.596 23.256 108.899 23.6807 109.315 24.01C109.749 24.322 110.329 24.478 111.057 24.478Z" fill="#ffffff"/>
<rect y="58" width="368" height="240" fill="#26262E"/>
<rect x="8.17773" y="70.7161" width="31.1584" height="39.1266" rx="3" fill="#FDFEFF"/>
<path d="M25.4054 94.4114L28.296 96.7004L27.2804 97.6379L24.4366 95.3801L25.4054 94.4114ZM28.2569 89.6692V90.3879C28.2569 91.2421 28.1501 92.0077 27.9366 92.6848C27.7231 93.3619 27.4158 93.9374 27.0147 94.4114C26.6137 94.8853 26.1319 95.2473 25.5694 95.4973C25.0121 95.7473 24.3871 95.8723 23.6944 95.8723C23.0225 95.8723 22.4054 95.7473 21.8429 95.4973C21.2856 95.2473 20.8012 94.8853 20.3897 94.4114C19.9835 93.9374 19.6684 93.3619 19.4444 92.6848C19.2205 92.0077 19.1085 91.2421 19.1085 90.3879V89.6692C19.1085 88.815 19.2179 88.052 19.4366 87.3801C19.6606 86.703 19.9757 86.1275 20.3819 85.6536C20.7882 85.1744 21.2699 84.8098 21.8272 84.5598C22.3897 84.3098 23.0069 84.1848 23.6788 84.1848C24.3715 84.1848 24.9991 84.3098 25.5616 84.5598C26.1241 84.8098 26.6059 85.1744 27.0069 85.6536C27.408 86.1275 27.7153 86.703 27.9288 87.3801C28.1475 88.052 28.2569 88.815 28.2569 89.6692ZM26.7647 90.3879V89.6536C26.7647 88.9765 26.6944 88.3775 26.5538 87.8567C26.4184 87.3359 26.2179 86.8984 25.9522 86.5442C25.6866 86.19 25.3637 85.9218 24.9835 85.7395C24.6033 85.5572 24.1684 85.4661 23.6788 85.4661C23.2153 85.4661 22.7934 85.5572 22.4132 85.7395C22.0382 85.9218 21.7153 86.19 21.4444 86.5442C21.1736 86.8984 20.9653 87.3359 20.8194 87.8567C20.6736 88.3775 20.6007 88.9765 20.6007 89.6536V90.3879C20.6007 91.0702 20.6736 91.6744 20.8194 92.2004C20.9653 92.7213 21.1736 93.1614 21.4444 93.5208C21.7205 93.8749 22.0486 94.1431 22.4288 94.3254C22.809 94.5077 23.2309 94.5989 23.6944 94.5989C24.184 94.5989 24.6189 94.5077 24.9991 94.3254C25.3793 94.1431 25.6996 93.8749 25.96 93.5208C26.2257 93.1614 26.4262 92.7213 26.5616 92.2004C26.697 91.6744 26.7647 91.0702 26.7647 90.3879Z" fill="#26262E"/>
<rect x="8.17773" y="113.755" width="31.1584" height="39.1266" rx="3" fill="#FDFEFF"/>
<path d="M24.0694 128.388L20.3038 138.755H18.7647L23.1007 127.38H24.0929L24.0694 128.388ZM27.2257 138.755L23.4522 128.388L23.4288 127.38H24.421L28.7725 138.755H27.2257ZM27.0304 134.544V135.779H20.6397V134.544H27.0304Z" fill="#26262E"/>
<rect x="43.7874" y="70.7161" width="31.1584" height="39.1266" rx="3" fill="#FDFEFF"/>
<path d="M56.5775 92.2786L58.8353 84.3411H59.929L59.2962 87.427L56.8665 95.7161H55.7806L56.5775 92.2786ZM54.2415 84.3411L56.0384 92.1223L56.5775 95.7161H55.4994L52.7415 84.3411H54.2415ZM62.8509 92.1145L64.6087 84.3411H66.1165L63.3665 95.7161H62.2884L62.8509 92.1145ZM60.0931 84.3411L62.2884 92.2786L63.0853 95.7161H61.9994L59.6556 87.427L59.015 84.3411H60.0931Z" fill="#26262E"/>
<rect x="43.7874" y="113.755" width="31.1584" height="39.1266" rx="3" fill="#FDFEFF"/>
<path d="M61.9994 135.88C61.9994 135.615 61.9577 135.38 61.8744 135.177C61.7962 134.969 61.6556 134.781 61.4525 134.615C61.2546 134.448 60.9785 134.289 60.6244 134.138C60.2754 133.987 59.8327 133.833 59.2962 133.677C58.7337 133.511 58.2259 133.326 57.7728 133.123C57.3197 132.914 56.9316 132.677 56.6087 132.412C56.2858 132.146 56.0384 131.841 55.8665 131.498C55.6947 131.154 55.6087 130.761 55.6087 130.318C55.6087 129.875 55.6999 129.466 55.8822 129.091C56.0645 128.716 56.3249 128.391 56.6634 128.115C57.0072 127.833 57.416 127.615 57.89 127.458C58.3639 127.302 58.8926 127.224 59.4759 127.224C60.3301 127.224 61.054 127.388 61.6478 127.716C62.2467 128.039 62.7025 128.464 63.015 128.99C63.3275 129.511 63.4837 130.068 63.4837 130.662H61.9837C61.9837 130.235 61.8926 129.857 61.7103 129.529C61.528 129.195 61.252 128.935 60.8822 128.748C60.5124 128.555 60.0436 128.458 59.4759 128.458C58.9395 128.458 58.4967 128.539 58.1478 128.701C57.7988 128.862 57.5384 129.081 57.3665 129.357C57.1999 129.633 57.1165 129.948 57.1165 130.302C57.1165 130.542 57.166 130.761 57.265 130.958C57.3691 131.151 57.528 131.331 57.7415 131.498C57.9603 131.664 58.2363 131.818 58.5697 131.958C58.9082 132.099 59.3119 132.235 59.7806 132.365C60.4264 132.547 60.9837 132.75 61.4525 132.974C61.9212 133.198 62.3066 133.451 62.6087 133.732C62.916 134.008 63.1426 134.323 63.2884 134.677C63.4395 135.026 63.515 135.422 63.515 135.865C63.515 136.328 63.4212 136.748 63.2337 137.123C63.0462 137.498 62.778 137.818 62.429 138.083C62.0801 138.349 61.6608 138.555 61.1712 138.701C60.6869 138.841 60.1452 138.912 59.5462 138.912C59.0202 138.912 58.502 138.839 57.9915 138.693C57.4863 138.547 57.0254 138.328 56.6087 138.037C56.1973 137.745 55.8665 137.386 55.6165 136.958C55.3717 136.526 55.2494 136.026 55.2494 135.458H56.7494C56.7494 135.849 56.8249 136.185 56.9759 136.466C57.127 136.742 57.3327 136.972 57.5931 137.154C57.8587 137.336 58.1582 137.472 58.4915 137.56C58.8301 137.643 59.1816 137.685 59.5462 137.685C60.0723 137.685 60.5176 137.612 60.8822 137.466C61.2467 137.32 61.5228 137.112 61.7103 136.841C61.903 136.57 61.9994 136.25 61.9994 135.88Z" fill="#26262E"/>
<rect x="79.397" y="113.755" width="31.1584" height="39.1266" rx="3" fill="#FDFEFF"/>
<path d="M94.1246 138.755H91.7496L91.7652 137.529H94.1246C94.9371 137.529 95.6142 137.36 96.1558 137.021C96.6975 136.677 97.1038 136.198 97.3746 135.583C97.6506 134.964 97.7887 134.24 97.7887 133.412V132.716C97.7887 132.065 97.7105 131.487 97.5543 130.982C97.398 130.472 97.1689 130.042 96.8668 129.693C96.5647 129.339 96.1949 129.07 95.7574 128.888C95.3251 128.706 94.8277 128.615 94.2652 128.615H91.7027V127.38H94.2652C95.01 127.38 95.6897 127.505 96.3043 127.755C96.9189 128 97.4475 128.357 97.8902 128.826C98.3381 129.289 98.6819 129.852 98.9215 130.513C99.1611 131.169 99.2808 131.909 99.2808 132.732V133.412C99.2808 134.235 99.1611 134.977 98.9215 135.638C98.6819 136.294 98.3355 136.854 97.8824 137.318C97.4345 137.781 96.8928 138.138 96.2574 138.388C95.6272 138.633 94.9163 138.755 94.1246 138.755ZM92.5543 127.38V138.755H91.0465V127.38H92.5543Z" fill="#26262E"/>
<rect x="79.397" y="70.7161" width="31.1584" height="39.1266" rx="3" fill="#FDFEFF"/>
<path d="M98.9762 94.4895V95.7161H92.9527V94.4895H98.9762ZM93.2574 84.3411V95.7161H91.7496V84.3411H93.2574ZM98.1793 89.2317V90.4583H92.9527V89.2317H98.1793ZM98.898 84.3411V85.5754H92.9527V84.3411H98.898Z" fill="#26262E"/>
<rect x="115.006" y="113.755" width="31.1584" height="39.1266" rx="3" fill="#FDFEFF"/>
<path d="M128.992 127.38V138.755H127.484V127.38H128.992ZM133.757 132.498V133.732H128.664V132.498H133.757ZM134.531 127.38V128.615H128.664V127.38H134.531Z" fill="#26262E"/>
<rect x="150.616" y="113.755" width="31.1584" height="39.1266" rx="3" fill="#FDFEFF"/>
<path d="M170.469 133.091V137.255C170.328 137.464 170.104 137.698 169.797 137.958C169.489 138.214 169.065 138.438 168.523 138.63C167.987 138.818 167.294 138.912 166.445 138.912C165.752 138.912 165.114 138.792 164.531 138.552C163.953 138.307 163.45 137.953 163.023 137.49C162.601 137.021 162.273 136.453 162.039 135.787C161.81 135.115 161.695 134.354 161.695 133.505V132.623C161.695 131.774 161.794 131.016 161.992 130.349C162.195 129.682 162.492 129.117 162.883 128.654C163.273 128.185 163.752 127.831 164.32 127.591C164.888 127.347 165.539 127.224 166.273 127.224C167.143 127.224 167.87 127.375 168.453 127.677C169.042 127.974 169.5 128.386 169.828 128.912C170.161 129.438 170.375 130.037 170.469 130.708H168.961C168.893 130.297 168.758 129.922 168.555 129.583C168.357 129.245 168.073 128.974 167.703 128.771C167.333 128.563 166.857 128.458 166.273 128.458C165.747 128.458 165.292 128.555 164.906 128.748C164.521 128.94 164.203 129.216 163.953 129.576C163.703 129.935 163.515 130.37 163.39 130.88C163.271 131.391 163.211 131.966 163.211 132.607V133.505C163.211 134.162 163.286 134.748 163.437 135.263C163.594 135.779 163.815 136.219 164.101 136.583C164.388 136.943 164.729 137.216 165.125 137.404C165.526 137.591 165.969 137.685 166.453 137.685C166.989 137.685 167.424 137.641 167.758 137.552C168.091 137.458 168.351 137.349 168.539 137.224C168.726 137.094 168.87 136.972 168.969 136.857V134.31H166.336V133.091H170.469Z" fill="#26262E"/>
<rect x="115.006" y="70.7161" width="31.1584" height="39.1266" rx="3" fill="#FDFEFF"/>
<path d="M126.976 84.3411H130.742C131.596 84.3411 132.317 84.4713 132.906 84.7317C133.5 84.9921 133.95 85.3775 134.257 85.8879C134.57 86.3931 134.726 87.0155 134.726 87.7551C134.726 88.276 134.619 88.7525 134.406 89.1848C134.198 89.6119 133.895 89.9765 133.5 90.2786C133.109 90.5754 132.64 90.7968 132.093 90.9426L131.671 91.1067H128.132L128.117 89.8801H130.789C131.33 89.8801 131.781 89.7864 132.14 89.5989C132.5 89.4062 132.77 89.1484 132.953 88.8254C133.135 88.5025 133.226 88.1458 133.226 87.7551C133.226 87.3176 133.14 86.9348 132.968 86.6067C132.796 86.2786 132.526 86.026 132.156 85.8489C131.791 85.6666 131.32 85.5754 130.742 85.5754H128.484V95.7161H126.976V84.3411ZM133.625 95.7161L130.859 90.5598L132.429 90.552L135.234 95.6223V95.7161H133.625Z" fill="#26262E"/>
<rect x="186.226" y="113.755" width="31.1584" height="39.1266" rx="3" fill="#FDFEFF"/>
<path d="M204.844 132.271V133.498H198.688V132.271H204.844ZM198.922 127.38V138.755H197.414V127.38H198.922ZM206.156 127.38V138.755H204.656V127.38H206.156Z" fill="#26262E"/>
<rect x="221.835" y="113.755" width="31.1584" height="39.1266" rx="3" fill="#FDFEFF"/>
<path d="M239.094 135.435V127.38H240.594V135.435C240.594 136.185 240.44 136.818 240.133 137.333C239.826 137.849 239.401 138.242 238.86 138.513C238.323 138.779 237.706 138.912 237.008 138.912C236.31 138.912 235.69 138.792 235.149 138.552C234.607 138.313 234.183 137.948 233.875 137.458C233.568 136.969 233.414 136.352 233.414 135.607H234.922C234.922 136.086 235.011 136.479 235.188 136.787C235.365 137.094 235.61 137.32 235.922 137.466C236.24 137.612 236.602 137.685 237.008 137.685C237.404 137.685 237.758 137.602 238.071 137.435C238.388 137.263 238.638 137.011 238.821 136.677C239.003 136.339 239.094 135.925 239.094 135.435Z" fill="#26262E"/>
<rect x="150.616" y="70.7161" width="31.1584" height="39.1266" rx="3" fill="#FDFEFF"/>
<path d="M166.945 84.3411V95.7161H165.461V84.3411H166.945ZM170.601 84.3411V85.5754H161.812V84.3411H170.601Z" fill="#26262E"/>
<rect x="257.445" y="113.755" width="31.1584" height="39.1266" rx="3" fill="#FDFEFF"/>
<path d="M270.829 127.38V138.755H269.321V127.38H270.829ZM277.696 127.38L272.969 132.685L270.313 135.443L270.063 133.833L272.063 131.63L275.883 127.38H277.696ZM276.243 138.755L272.032 133.208L272.93 132.013L278.04 138.755H276.243Z" fill="#26262E"/>
<rect x="293.054" y="113.755" width="31.1584" height="39.1266" rx="3" fill="#FDFEFF"/>
<path d="M312.54 137.529V138.755H306.852V137.529H312.54ZM307.149 127.38V138.755H305.641V127.38H307.149Z" fill="#26262E"/>
<rect x="186.226" y="70.7161" width="31.1584" height="39.1266" rx="3" fill="#FDFEFF"/>
<path d="M198.844 84.3411L201.797 90.052L204.758 84.3411H206.469L202.547 91.4661V95.7161H201.039V91.4661L197.117 84.3411H198.844Z" fill="#26262E"/>
<rect x="221.835" y="70.7161" width="31.1584" height="39.1266" rx="3" fill="#FDFEFF"/>
<path d="M240.055 84.3411H241.555V92.0364C241.555 92.8905 241.365 93.6015 240.985 94.1692C240.604 94.7369 240.099 95.164 239.469 95.4504C238.844 95.7317 238.164 95.8723 237.43 95.8723C236.659 95.8723 235.961 95.7317 235.336 95.4504C234.716 95.164 234.224 94.7369 233.86 94.1692C233.5 93.6015 233.321 92.8905 233.321 92.0364V84.3411H234.813V92.0364C234.813 92.6301 234.922 93.1197 235.141 93.5051C235.36 93.8905 235.664 94.177 236.055 94.3645C236.451 94.552 236.909 94.6458 237.43 94.6458C237.956 94.6458 238.414 94.552 238.805 94.3645C239.201 94.177 239.508 93.8905 239.727 93.5051C239.946 93.1197 240.055 92.6301 240.055 92.0364V84.3411Z" fill="#26262E"/>
<rect x="257.445" y="70.7161" width="31.1584" height="39.1266" rx="3" fill="#FDFEFF"/>
<path d="M273.782 84.3411V95.7161H272.274V84.3411H273.782Z" fill="#26262E"/>
<rect x="293.054" y="70.7161" width="31.1584" height="39.1266" rx="3" fill="#FDFEFF"/>
<path d="M313.204 89.6692V90.3879C313.204 91.2421 313.097 92.0077 312.883 92.6848C312.67 93.3619 312.363 93.9374 311.962 94.4114C311.56 94.8853 311.079 95.2473 310.516 95.4973C309.959 95.7473 309.334 95.8723 308.641 95.8723C307.969 95.8723 307.352 95.7473 306.79 95.4973C306.232 95.2473 305.748 94.8853 305.337 94.4114C304.93 93.9374 304.615 93.3619 304.391 92.6848C304.167 92.0077 304.055 91.2421 304.055 90.3879V89.6692C304.055 88.815 304.165 88.052 304.383 87.3801C304.607 86.703 304.922 86.1275 305.329 85.6536C305.735 85.1744 306.217 84.8098 306.774 84.5598C307.337 84.3098 307.954 84.1848 308.626 84.1848C309.318 84.1848 309.943 84.3098 310.501 84.5598C311.063 84.8098 311.545 85.1744 311.946 85.6536C312.352 86.1275 312.662 86.703 312.876 87.3801C313.094 88.052 313.204 88.815 313.204 89.6692ZM311.712 90.3879V89.6536C311.712 88.9765 311.641 88.3775 311.501 87.8567C311.365 87.3359 311.165 86.8984 310.899 86.5442C310.633 86.19 310.308 85.9218 309.922 85.7395C309.542 85.5572 309.11 85.4661 308.626 85.4661C308.157 85.4661 307.732 85.5572 307.352 85.7395C306.977 85.9218 306.654 86.19 306.383 86.5442C306.118 86.8984 305.912 87.3359 305.766 87.8567C305.62 88.3775 305.547 88.9765 305.547 89.6536V90.3879C305.547 91.0702 305.62 91.6744 305.766 92.2004C305.912 92.7213 306.12 93.1614 306.391 93.5208C306.667 93.8749 306.993 94.1431 307.368 94.3254C307.748 94.5077 308.172 94.5989 308.641 94.5989C309.131 94.5989 309.566 94.5077 309.946 94.3254C310.326 94.1431 310.646 93.8749 310.907 93.5208C311.172 93.1614 311.373 92.7213 311.508 92.2004C311.644 91.6744 311.712 91.0702 311.712 90.3879Z" fill="#26262E"/>
<rect x="61.3333" y="156.795" width="31.1584" height="39.1266" rx="3" fill="#FDFEFF"/>
<path d="M81.0687 180.568V181.795H73.3656V180.568H81.0687ZM80.8187 171.513L73.7249 181.795H72.7952V180.67L79.8812 170.42H80.8187V171.513ZM80.1781 170.42V171.654H72.8968V170.42H80.1781Z" fill="#26262E"/>
<rect x="61.3333" y="199.834" width="31.1584" height="39.1266" rx="3" fill="#FDFEFF"/>
<path d="M77.7484 223.115V224.279C77.7484 224.753 77.6286 225.253 77.389 225.779C77.1494 226.311 76.8135 226.753 76.3812 227.107L75.5609 226.537C75.7275 226.308 75.8682 226.074 75.9827 225.834C76.0973 225.6 76.1833 225.355 76.2406 225.1C76.3031 224.85 76.3343 224.584 76.3343 224.303V223.115H77.7484Z" fill="#26262E"/>
<rect x="96.9429" y="156.795" width="31.1584" height="39.1266" rx="3" fill="#FDFEFF"/>
<path d="M109.803 170.42L112.538 174.779L115.272 170.42H117.03L113.436 176.052L117.116 181.795H115.342L112.538 177.349L109.733 181.795H107.96L111.639 176.052L108.045 170.42H109.803Z" fill="#26262E"/>
<rect x="132.552" y="156.795" width="31.1584" height="39.1266" rx="3" fill="#FDFEFF"/>
<path d="M151.108 178.177H152.608C152.53 178.896 152.324 179.539 151.991 180.107C151.658 180.675 151.186 181.125 150.577 181.459C149.968 181.787 149.207 181.951 148.296 181.951C147.629 181.951 147.022 181.826 146.475 181.576C145.934 181.326 145.468 180.972 145.077 180.513C144.686 180.05 144.384 179.495 144.171 178.849C143.962 178.198 143.858 177.474 143.858 176.677V175.545C143.858 174.748 143.962 174.026 144.171 173.381C144.384 172.73 144.689 172.172 145.085 171.709C145.486 171.245 145.968 170.888 146.53 170.638C147.093 170.388 147.725 170.263 148.429 170.263C149.288 170.263 150.014 170.425 150.608 170.748C151.202 171.071 151.663 171.519 151.991 172.092C152.324 172.659 152.53 173.318 152.608 174.068H151.108C151.035 173.537 150.9 173.081 150.702 172.701C150.504 172.316 150.223 172.019 149.858 171.81C149.494 171.602 149.017 171.498 148.429 171.498C147.923 171.498 147.478 171.594 147.093 171.787C146.712 171.98 146.392 172.253 146.132 172.607C145.876 172.961 145.684 173.386 145.554 173.881C145.423 174.375 145.358 174.925 145.358 175.529V176.677C145.358 177.235 145.416 177.758 145.53 178.248C145.65 178.737 145.83 179.167 146.069 179.537C146.309 179.907 146.613 180.198 146.983 180.412C147.353 180.62 147.791 180.724 148.296 180.724C148.936 180.724 149.447 180.623 149.827 180.42C150.207 180.217 150.494 179.925 150.686 179.545C150.884 179.164 151.025 178.709 151.108 178.177Z" fill="#26262E"/>
<rect x="168.162" y="156.795" width="31.1584" height="39.1266" rx="3" fill="#FDFEFF"/>
<path d="M183.64 180.068L186.991 170.42H188.624L184.413 181.795H183.249L183.64 180.068ZM180.507 170.42L183.827 180.068L184.241 181.795H183.077L178.874 170.42H180.507Z" fill="#26262E"/>
<rect x="203.771" y="156.795" width="31.1584" height="39.1266" rx="3" fill="#FDFEFF"/>
<path d="M219.741 176.474H216.858L216.843 175.263H219.46C219.892 175.263 220.27 175.191 220.593 175.045C220.916 174.899 221.166 174.691 221.343 174.42C221.525 174.144 221.616 173.816 221.616 173.435C221.616 173.019 221.536 172.68 221.374 172.42C221.218 172.154 220.976 171.961 220.648 171.842C220.325 171.717 219.913 171.654 219.413 171.654H217.194V181.795H215.687V170.42H219.413C219.997 170.42 220.517 170.48 220.976 170.599C221.434 170.714 221.822 170.896 222.14 171.146C222.463 171.391 222.707 171.704 222.874 172.084C223.041 172.464 223.124 172.92 223.124 173.451C223.124 173.92 223.004 174.344 222.765 174.724C222.525 175.099 222.192 175.407 221.765 175.646C221.343 175.886 220.848 176.039 220.28 176.107L219.741 176.474ZM219.671 181.795H216.265L217.116 180.568H219.671C220.15 180.568 220.556 180.485 220.89 180.318C221.228 180.151 221.486 179.917 221.663 179.615C221.84 179.308 221.929 178.946 221.929 178.529C221.929 178.107 221.853 177.743 221.702 177.435C221.551 177.128 221.314 176.891 220.991 176.724C220.668 176.558 220.252 176.474 219.741 176.474H217.593L217.608 175.263H220.546L220.866 175.701C221.413 175.748 221.877 175.904 222.257 176.17C222.637 176.43 222.926 176.763 223.124 177.17C223.327 177.576 223.429 178.024 223.429 178.513C223.429 179.222 223.273 179.821 222.96 180.31C222.653 180.795 222.218 181.164 221.655 181.42C221.093 181.67 220.431 181.795 219.671 181.795Z" fill="#26262E"/>
<rect x="239.381" y="156.795" width="31.1584" height="39.1266" rx="3" fill="#FDFEFF"/>
<path d="M259.32 170.42V181.795H257.804L252.077 173.021V181.795H250.57V170.42H252.077L257.827 179.217V170.42H259.32Z" fill="#26262E"/>
<rect x="97.1111" y="199.834" width="173.778" height="39.1266" rx="3" fill="#FDFEFF"/>
<path d="M187.586 224.834V226.021H180.422V224.834H187.586Z" fill="#26262E"/>
<rect x="274.991" y="156.795" width="31.1584" height="39.1266" rx="3" fill="#FDFEFF"/>
<path d="M285.382 170.42H286.843L290.57 179.693L294.289 170.42H295.757L291.132 181.795H289.992L285.382 170.42ZM284.906 170.42H286.195L286.406 177.357V181.795H284.906V170.42ZM294.937 170.42H296.226V181.795H294.726V177.357L294.937 170.42Z" fill="#26262E"/>
<rect x="274.991" y="199.834" width="31.1584" height="39.1266" rx="3" fill="#FDFEFF"/>
<path d="M289.586 224.068C289.586 223.824 289.661 223.618 289.812 223.451C289.968 223.279 290.192 223.193 290.484 223.193C290.776 223.193 290.997 223.279 291.148 223.451C291.304 223.618 291.382 223.824 291.382 224.068C291.382 224.308 291.304 224.511 291.148 224.678C290.997 224.844 290.776 224.928 290.484 224.928C290.192 224.928 289.968 224.844 289.812 224.678C289.661 224.511 289.586 224.308 289.586 224.068Z" fill="#26262E"/>
<rect x="8.17773" y="199.834" width="49.0667" height="39.1266" rx="3" fill="#FDFEFF"/>
<path d="M25.0626 213.459L24.9611 221.623H23.6564L23.547 213.459H25.0626ZM23.5001 224.107C23.5001 223.873 23.5704 223.675 23.7111 223.514C23.8569 223.352 24.0704 223.271 24.3517 223.271C24.6277 223.271 24.8387 223.352 24.9845 223.514C25.1355 223.675 25.2111 223.873 25.2111 224.107C25.2111 224.331 25.1355 224.524 24.9845 224.686C24.8387 224.847 24.6277 224.928 24.3517 224.928C24.0704 224.928 23.8569 224.847 23.7111 224.686C23.5704 224.524 23.5001 224.331 23.5001 224.107ZM28.547 224.834L30.7579 213.459H31.8829L29.6642 224.834H28.547ZM31.7267 224.834L33.9454 213.459H35.0626L32.8439 224.834H31.7267ZM36.0158 217.795H27.8908V216.709H36.0158V217.795ZM35.4298 221.631H27.297V220.553H35.4298V221.631ZM41.2658 213.396V224.834H39.8204V215.201L36.9064 216.264V214.959L41.0392 213.396H41.2658Z" fill="#26262E"/>
<rect x="328.664" y="70.7161" width="31.1584" height="39.1266" rx="3" fill="#FDFEFF"/>
<path d="M344.712 91.2551H341.673V90.0286H344.712C345.3 90.0286 345.777 89.9348 346.141 89.7473C346.506 89.5598 346.772 89.2994 346.938 88.9661C347.11 88.6327 347.196 88.2525 347.196 87.8254C347.196 87.4348 347.11 87.0676 346.938 86.7239C346.772 86.3801 346.506 86.1041 346.141 85.8958C345.777 85.6822 345.3 85.5754 344.712 85.5754H342.024V95.7161H340.516V84.3411H344.712C345.571 84.3411 346.298 84.4895 346.891 84.7864C347.485 85.0833 347.936 85.4947 348.243 86.0208C348.55 86.5416 348.704 87.1379 348.704 87.8098C348.704 88.539 348.55 89.1614 348.243 89.677C347.936 90.1926 347.485 90.5859 346.891 90.8567C346.298 91.1223 345.571 91.2551 344.712 91.2551Z" fill="#26262E"/>
<rect x="328.664" y="113.755" width="31.1584" height="39.1266" rx="3" fill="#FDFEFF"/>
<path d="M348.602 127.38V138.755H347.087L341.36 129.982V138.755H339.852V127.38H341.36L347.11 136.177V127.38H348.602ZM346.001 124.482L346.977 124.568C346.977 124.948 346.902 125.281 346.751 125.568C346.6 125.854 346.397 126.076 346.141 126.232C345.891 126.388 345.608 126.466 345.29 126.466C345.024 126.466 344.806 126.43 344.634 126.357C344.462 126.279 344.308 126.193 344.173 126.099C344.037 126 343.894 125.914 343.743 125.841C343.597 125.763 343.415 125.724 343.196 125.724C342.977 125.724 342.792 125.807 342.641 125.974C342.496 126.141 342.423 126.347 342.423 126.591L341.446 126.544C341.446 126.164 341.519 125.831 341.665 125.544C341.816 125.253 342.019 125.026 342.274 124.865C342.529 124.698 342.813 124.615 343.126 124.615C343.35 124.615 343.545 124.654 343.712 124.732C343.884 124.805 344.045 124.891 344.196 124.99C344.347 125.083 344.503 125.169 344.665 125.248C344.826 125.32 345.011 125.357 345.22 125.357C345.438 125.357 345.623 125.274 345.774 125.107C345.925 124.935 346.001 124.727 346.001 124.482Z" fill="#26262E"/>
<rect x="8.17773" y="156.795" width="43.9556" height="39.1266" rx="3" fill="#FDFEFF"/>
<path d="M30.1554 169.511L37.8221 175.217L33.5714 175.217L33.5628 184.183L26.748 184.183L26.748 175.217L22.4888 175.217L30.1554 169.511Z" fill="#26262E"/>
<rect x="315.867" y="156.795" width="43.9556" height="39.1266" rx="3" fill="#FDFEFF"/>
<path d="M346.329 168.533H335.586C335.092 168.533 334.382 168.78 334.01 169.083L326.368 175.317C326.281 175.384 326.211 175.468 326.162 175.563C326.114 175.659 326.089 175.763 326.089 175.868C326.089 175.974 326.114 176.078 326.162 176.174C326.211 176.269 326.281 176.353 326.368 176.42L334.01 182.653C334.382 182.956 335.092 183.205 335.586 183.205H346.329C347.566 183.205 348.578 182.262 348.578 181.109V170.629C348.578 169.476 347.566 168.533 346.329 168.533ZM343.17 180.061L340.295 177.381L337.421 180.061L335.799 178.549L338.673 175.869L335.799 173.189L337.421 171.677L340.296 174.355L343.169 171.677L344.793 173.189L341.919 175.869L344.794 178.547L343.17 180.061Z" fill="#26262E"/>
<rect x="309.733" y="199.834" width="50.0889" height="39.1266" rx="3" fill="#FDFEFF"/>
<path d="M342.24 211.322H340.707C340.468 211.322 340.252 211.509 340.252 211.766V224.09H328.332V222.568C328.332 222.179 327.88 222.001 327.598 222.216C327.598 222.216 327.598 222.216 327.597 222.217L323.974 224.933C323.974 224.933 323.973 224.933 323.973 224.933C323.919 224.974 323.874 225.026 323.843 225.087L324.065 225.202L323.843 225.087C323.811 225.149 323.794 225.217 323.794 225.287C323.794 225.356 323.811 225.424 323.843 225.486C323.874 225.547 323.919 225.599 323.973 225.64C323.973 225.64 323.974 225.64 323.974 225.64L327.599 228.358C327.599 228.358 327.599 228.358 327.599 228.358C327.599 228.358 327.599 228.358 327.599 228.358C327.882 228.571 328.332 228.395 328.332 228.005V226.435H340.809C341.837 226.435 342.694 225.638 342.694 224.631V211.766C342.694 211.509 342.478 211.322 342.24 211.322Z" fill="#26262E" stroke="#26262E" stroke-width="0.5"/>
</svg>
